# xmcd CD database file
#
# Track frame offsets:
#	150
#	12977
#	24275
#	37760
#	53295
#	65010
#	76125
#	89640
#	105065
#	117325
#	129087
#	141342
#	153695
#	164207
#	176290
#	190392
#	202282
#	214077
#	231687
#	246257
#	260022
#	273680
#	286867
#
# Disc length: 4018 seconds
#
# Revision: 0
# Processed by: cddbd v1.5.2PL0 Copyright (c) Steve Scherf et al.
# Submitted via: CDex 1.70beta2
#
DISCID=4e0fb017
DTITLE=Jones Classic Country - Jones Classic Country CCC-618
DYEAR=0000
DGENRE=Country
TTITLE0=Gary Stewart/She's Actin' Single (I'm Drinkin' Doubles)
TTITLE1=George Strait/Unwound
TTITLE2=George Strait/If You're Thinking You Want A Stranger (There's One Coming Home)
TTITLE3=Mel Tillis/Coca Cola Cowboy
TTITLE4=Mel Tillis/Southern Rains
TTITLE5=Tanya Tucker/Would You Lay With Me (In A Field Of Stone)
TTITLE6=Tanya Tucker/Man That Turned My Mama On
TTITLE7=Gene Watson/Love InThe Hot Afternoon
TTITLE8=Gene Watson/Fourteen Carat Mind
TTITLE9=Gene Watson/You're Out Doing What I'm Here Doing Without
TTITLE10=Gene Watson/Got No Reason Now For Goin' Home
TTITLE11=Gene Watson/Memories To Burn
TTITLE12=Tommy Duncan, Bob Wills and His Texas Playmates/San Antonio Rosse
TTITLE13=Tammy Wynette/I Don't Wanna Play House
TTITLE14=Tammy Wynette/'Til I Can Make It On My Own
TTITLE15=JoeStampley/Roll On Big Mama
TTITLE16=Johnny Horton/Battle Of New Orleans
TTITLE17=Willie Nelson and Ray Price/Faded Love
TTITLE18=Charlie Rich and Janie Fricke/On My Knees
TTITLE19=Ray Price/Heartaches By The Number
TTITLE20=Tanya Tucker/Jamestown Ferry
TTITLE21=Tommy Cash/Six White Horses
TTITLE22=Moe Bandy/Hank Williams You Wrote My Life
EXTD=YEAR: 0000
EXTT0=
EXTT1=
EXTT2=
EXTT3=
EXTT4=
EXTT5=
EXTT6=
EXTT7=
EXTT8=
EXTT9=
EXTT10=
EXTT11=
EXTT12=
EXTT13=
EXTT14=
EXTT15=
EXTT16=
EXTT17=
EXTT18=
EXTT19=
EXTT20=
EXTT21=
EXTT22=
PLAYORDER=
